<svg width="53" height="53" viewBox="0 0 53 53" fill="none" xmlns="http://www.w3.org/2000/svg">
<g id="Calendar">
<path id="Union" d="M41.1235 4.96875H43.0625C45.8067 4.96875 48.0312 7.19334 48.0312 9.9375V44.7188C48.0312 47.4629 45.8067 49.6875 43.0625 49.6875H9.9375C7.19334 49.6875 4.96875 47.4629 4.96875 44.7188V9.9375C4.96875 7.19334 7.19334 4.96875 9.9375 4.96875H11.8765C12.5586 3.0389 14.3991 1.65625 16.5625 1.65625C18.7259 1.65625 20.5664 3.0389 21.2485 4.96875H21.814C22.4961 3.0389 24.3366 1.65625 26.5 1.65625C28.6634 1.65625 30.5039 3.0389 31.186 4.96875H31.7515C32.4336 3.0389 34.2741 1.65625 36.4375 1.65625C38.6009 1.65625 40.4414 3.0389 41.1235 4.96875Z" fill="#4A5764"/>
<path id="Rectangle 14" d="M8.28125 41.4062C8.28125 40.4915 9.02278 39.75 9.9375 39.75H43.0625C43.9772 39.75 44.7188 40.4915 44.7188 41.4062V44.7188C44.7188 45.6335 43.9772 46.375 43.0625 46.375H9.9375C9.02278 46.375 8.28125 45.6335 8.28125 44.7188V41.4062Z" fill="#7E8FA0"/>
<path id="Rectangle 13" d="M8.28125 24.8438H44.7188V41.4062C44.7188 42.321 43.9772 43.0625 43.0625 43.0625H9.9375C9.02278 43.0625 8.28125 42.321 8.28125 41.4062V24.8438Z" fill="url(#paint0_linear_65_198)"/>
<path id="Rectangle 15" d="M8.28125 9.9375C8.28125 9.02278 9.02278 8.28125 9.9375 8.28125H43.0625C43.9772 8.28125 44.7188 9.02278 44.7188 9.9375V21.5312H8.28125V9.9375Z" fill="url(#paint1_linear_65_198)"/>
<rect id="Rectangle 16" x="8.28125" y="21.5312" width="36.4375" height="3.3125" fill="#F74339"/>
<path id="Vector 15 (Stroke)" fill-rule="evenodd" clip-rule="evenodd" d="M16.5625 8.28125C17.4772 8.28125 18.2188 9.02278 18.2188 9.9375V14.9062C18.2188 15.821 17.4772 16.5625 16.5625 16.5625C15.6478 16.5625 14.9062 15.821 14.9062 14.9062V9.9375C14.9062 9.02278 15.6478 8.28125 16.5625 8.28125ZM26.5 8.28125C27.4147 8.28125 28.1562 9.02278 28.1562 9.9375V14.9062C28.1562 15.821 27.4147 16.5625 26.5 16.5625C25.5853 16.5625 24.8438 15.821 24.8438 14.9062V9.9375C24.8438 9.02278 25.5853 8.28125 26.5 8.28125ZM36.4375 8.28125C37.3522 8.28125 38.0938 9.02278 38.0938 9.9375V14.9062C38.0938 15.821 37.3522 16.5625 36.4375 16.5625C35.5228 16.5625 34.7812 15.821 34.7812 14.9062V9.9375C34.7812 9.02278 35.5228 8.28125 36.4375 8.28125Z" fill="#F74339"/>
<path id="Vector 14 (Stroke)" fill-rule="evenodd" clip-rule="evenodd" d="M16.5625 4.96875C17.4772 4.96875 18.2188 5.71028 18.2188 6.625V11.5938C18.2188 12.5085 17.4772 13.25 16.5625 13.25C15.6478 13.25 14.9062 12.5085 14.9062 11.5938V6.625C14.9062 5.71028 15.6478 4.96875 16.5625 4.96875ZM26.5 4.96875C27.4147 4.96875 28.1562 5.71028 28.1562 6.625V11.5938C28.1562 12.5085 27.4147 13.25 26.5 13.25C25.5853 13.25 24.8438 12.5085 24.8438 11.5938V6.625C24.8438 5.71028 25.5853 4.96875 26.5 4.96875ZM36.4375 4.96875C37.3522 4.96875 38.0938 5.71028 38.0938 6.625V11.5938C38.0938 12.5085 37.3522 13.25 36.4375 13.25C35.5228 13.25 34.7812 12.5085 34.7812 11.5938V6.625C34.7812 5.71028 35.5228 4.96875 36.4375 4.96875Z" fill="white"/>
</g>
<defs>
<linearGradient id="paint0_linear_65_198" x1="26.5" y1="24.8438" x2="26.5" y2="43.0625" gradientUnits="userSpaceOnUse">
<stop stop-color="white"/>
<stop offset="1" stop-color="#E2E5E9"/>
</linearGradient>
<linearGradient id="paint1_linear_65_198" x1="26.5" y1="8.28125" x2="26.5" y2="21.5312" gradientUnits="userSpaceOnUse">
<stop stop-color="#FFCAC7"/>
<stop offset="1" stop-color="#FF6860"/>
</linearGradient>
</defs>
</svg>
